<?xml version="1.0" encoding="UTF-8" standalone="no"?><!DOCTYPE svg PUBLIC "-//W3C//DTD SVG 1.1//EN" "http://www.w3.org/Graphics/SVG/1.1/DTD/svg11.dtd"><svg width="100%" height="100%" viewBox="0 0 180 180" version="1.1" xmlns="http://www.w3.org/2000/svg" xmlns:xlink="http://www.w3.org/1999/xlink" xml:space="preserve" xmlns:serif="http://www.serif.com/" style="fill-rule:evenodd;clip-rule:evenodd;stroke-linejoin:round;stroke-miterlimit:2;"><path d="M169.796,55.335c0,-17.203 -13.966,-31.169 -31.169,-31.169l-97.236,0c-17.202,0 -31.168,13.966 -31.168,31.169l0,62.336c0,17.202 13.966,31.168 31.168,31.168l97.236,0c17.203,0 31.169,-13.966 31.169,-31.168l0,-62.336Z" style="fill:#003598;"/><path d="M169.786,46.811c0,-17.202 -13.966,-31.168 -31.168,-31.168l-97.236,0c-17.202,0 -31.168,13.966 -31.168,31.168l0,62.337c0,17.202 13.966,31.168 31.168,31.168l97.236,0c17.202,0 31.168,-13.966 31.168,-31.168l0,-62.337Z" style="fill:#2376e5;"/><path d="M10.214,119.414l44.871,28.522l-44.524,24.656l-0.347,-53.178Z" style="fill:#003598;"/><path d="M10.223,110.891l44.871,28.522l-44.523,24.655l-0.348,-53.177Z" style="fill:#2376e5;"/><path d="M152.868,45.116c0,-4.704 -3.819,-8.523 -8.523,-8.523l-108.69,0c-4.704,0 -8.523,3.819 -8.523,8.523c0,4.704 3.819,8.523 8.523,8.523l108.69,0c4.704,0 8.523,-3.819 8.523,-8.523Z" style="fill:#003598;"/><path d="M152.868,77.98c0,-4.705 -3.819,-8.524 -8.523,-8.524l-108.69,0c-4.704,0 -8.523,3.819 -8.523,8.524c0,4.704 3.819,8.523 8.523,8.523l108.69,0c4.704,0 8.523,-3.819 8.523,-8.523Z" style="fill:#003598;"/><path d="M152.868,110.891c0,-4.704 -3.819,-8.523 -8.523,-8.523l-108.69,0c-4.704,0 -8.523,3.819 -8.523,8.523c0,4.704 3.819,8.523 8.523,8.523l108.69,0c4.704,0 8.523,-3.819 8.523,-8.523Z" style="fill:#003598;"/></svg>