<?xml version="1.0" standalone="no"?>
<!DOCTYPE svg PUBLIC "-//W3C//DTD SVG 20010904//EN"
 "http://www.w3.org/TR/2001/REC-SVG-20010904/DTD/svg10.dtd">
<svg version="1.0" xmlns="http://www.w3.org/2000/svg"
 width="700.000000pt" height="700.000000pt" viewBox="0 0 700.000000 700.000000"
 preserveAspectRatio="xMidYMid meet">
<metadata>
Created by potrace 1.11, written by Peter Selinger 2001-2013
</metadata>
<g transform="translate(0.000000,700.000000) scale(0.100000,-0.100000)"
fill="#000000" stroke="none">
<path d="M3300 6414 c-19 -2 -82 -9 -140 -15 -210 -22 -471 -85 -687 -164
-133 -50 -395 -180 -521 -259 -465 -294 -829 -698 -1072 -1191 -149 -304 -237
-598 -281 -945 -18 -138 -18 -542 0 -680 44 -347 132 -641 281 -945 290 -589
746 -1045 1335 -1335 304 -149 598 -237 945 -281 138 -18 542 -18 680 0 347
44 641 132 945 281 589 290 1045 746 1335 1335 149 304 237 598 281 945 18
138 18 542 0 680 -44 347 -132 641 -281 945 -290 589 -746 1045 -1335 1335
-296 145 -572 229 -904 276 -101 14 -506 27 -581 18z m490 -165 c412 -38 867
-201 1231 -441 685 -452 1142 -1201 1229 -2013 15 -141 15 -449 0 -590 -87
-812 -544 -1561 -1229 -2013 -361 -238 -799 -396 -1226 -442 -141 -15 -449
-15 -590 0 -1201 129 -2185 1034 -2420 2225 -34 175 -47 317 -47 525 0 208 13
350 47 525 219 1109 1080 1970 2190 2190 258 51 512 61 815 34z"/>
<path d="M3370 4791 l0 -1348 879 -508 c484 -279 883 -507 888 -508 14 0 134
216 125 225 -5 5 -373 219 -818 476 l-809 467 -3 1273 -2 1272 -130 0 -130 0
0 -1349z"/>
</g>
</svg>
